<svg width="147" xmlns="http://www.w3.org/2000/svg" height="142" id="screenshot-303696be-0215-803e-8008-831564eddc04" viewBox="0 0 147 142" xmlns:xlink="http://www.w3.org/1999/xlink" fill="none" version="1.1"><g id="shape-303696be-0215-803e-8008-831564eddc04"><defs><clipPath id="frame-clip-303696be-0215-803e-8008-831564eddc04-render-1" class="frame-clip frame-clip-def"><rect rx="0" ry="0" x="0" y="0" width="147" height="142" transform="matrix(1.000000, 0.000000, 0.000000, 1.000000, 0.000000, 0.000000)"/></clipPath></defs><g class="frame-container-wrapper"><g class="frame-container-blur"><g class="frame-container-shadows"><g clip-path="url(#frame-clip-303696be-0215-803e-8008-831564eddc04-render-1)" fill="none"><g class="fills" id="fills-303696be-0215-803e-8008-831564eddc04"><rect width="147" height="142" class="frame-background" x="0" transform="matrix(1.000000, 0.000000, 0.000000, 1.000000, 0.000000, 0.000000)" style="fill: rgb(255, 255, 255); fill-opacity: 1;" ry="0" rx="0" y="0"/></g><g class="frame-children"><g id="shape-303696be-0215-803e-8008-830c84872351"><g class="fills" id="fills-303696be-0215-803e-8008-830c84872351"><path d="M9.353759765625,6L29.29052734375,6L29.29052734375,26.134307861328125L9,26.134307861328125L9,6.351165771484375L9.353759765625,6M12.067138671875,9.0435791015625L12.067138671875,23.3248291015625L26.459228515625,23.3248291015625L26.459228515625,9.0435791015625L12.067138671875,9.0435791015625M32.12158203125,6L46.631591796875,6L46.74951171875,6.1170654296875L46.74951171875,9.0435791015625L40.851318359375,9.0435791015625L40.851318359375,11.85296630859375L38.02001953125,11.85296630859375L38.02001953125,14.66241455078125L43.682373046875,14.66241455078125L43.682373046875,11.97003173828125L43.800537109375,11.85296630859375L49.580810546875,11.85296630859375L49.580810546875,14.66241455078125L52.411865234375,14.66241455078125L52.411865234375,9.0435791015625L58.310546875,9.0435791015625L58.310546875,11.85296630859375L55.2431640625,11.85296630859375L55.2431640625,14.66241455078125L63.97265625,14.66241455078125L63.97265625,9.0435791015625L61.1416015625,9.0435791015625L61.1416015625,6L69.753173828125,6L69.871337890625,6.1170654296875L69.871337890625,9.0435791015625L72.466552734375,9.0435791015625L72.466552734375,6.1170654296875L72.58447265625,6L98.655029296875,6L98.655029296875,9.0435791015625L101.486572265625,9.0435791015625L101.486572265625,11.85296630859375L104.317626953125,11.85296630859375L104.317626953125,9.0435791015625L107.384765625,9.0435791015625L107.384765625,17.354827880859375L107.5029296875,17.471893310546875L109.97998046875,17.471893310546875L109.97998046875,9.0435791015625L113.04736328125,9.0435791015625L113.04736328125,6L115.87841796875,6L115.87841796875,9.0435791015625L113.1650390625,9.0435791015625L113.04736328125,9.16064453125L113.04736328125,14.66241455078125L115.87841796875,14.66241455078125L115.87841796875,20.51544189453125L107.384765625,20.51544189453125L107.384765625,23.3248291015625L110.2158203125,23.3248291015625L110.2158203125,26.134307861328125L113.04736328125,26.134307861328125L113.04736328125,23.3248291015625L115.87841796875,23.3248291015625L115.87841796875,26.134307861328125L113.04736328125,26.134307861328125L113.04736328125,28.943756103515625L124.608154296875,28.943756103515625L124.608154296875,34.796722412109375L127.439208984375,34.796722412109375L127.439208984375,31.987274169921875L130.2705078125,31.987274169921875L130.2705078125,28.943756103515625L139,28.943756103515625L139,34.796722412109375L133.33740234375,34.796722412109375L133.33740234375,37.606170654296875L139,37.606170654296875L139,46.26861572265625L135.932861328125,46.26861572265625L135.932861328125,43.459136962890625L133.101806640625,43.459136962890625L133.101806640625,40.649749755859375L130.2705078125,40.649749755859375L130.2705078125,37.606170654296875L124.608154296875,37.606170654296875L124.608154296875,43.459136962890625L121.540771484375,43.459136962890625L121.540771484375,37.606170654296875L118.70947265625,37.606170654296875L118.70947265625,34.796722412109375L115.87841796875,34.796722412109375L115.87841796875,37.606170654296875L113.04736328125,37.606170654296875L113.04736328125,34.796722412109375L115.87841796875,34.796722412109375L115.87841796875,31.987274169921875L113.04736328125,31.987274169921875L113.04736328125,29.177886962890625L110.2158203125,29.177886962890625L110.2158203125,31.987274169921875L107.384765625,31.987274169921875L107.384765625,34.796722412109375L110.2158203125,34.796722412109375L110.2158203125,37.606170654296875L107.384765625,37.606170654296875L107.384765625,40.415557861328125L110.2158203125,40.415557861328125L110.2158203125,43.459136962890625L107.148681640625,43.459136962890625L107.148681640625,40.649749755859375L104.317626953125,40.649749755859375L104.317626953125,43.459136962890625L101.486572265625,43.459136962890625L101.486572265625,37.606170654296875L95.823974609375,37.606170654296875L95.823974609375,40.649749755859375L92.7568359375,40.649749755859375L92.7568359375,43.22503662109375L98.655029296875,43.22503662109375L98.655029296875,46.26861572265625L92.874755859375,46.26861572265625L92.7568359375,46.15155029296875L92.7568359375,43.459136962890625L87.094482421875,43.459136962890625L87.094482421875,40.415557861328125L89.925537109375,40.415557861328125L89.925537109375,37.606170654296875L81.31396484375,37.606170654296875L81.196044921875,37.4891357421875L81.196044921875,34.796722412109375L78.36474609375,34.796722412109375L78.36474609375,48.96099853515625L78.246826171875,49.07806396484375L75.651611328125,49.07806396484375L75.533447265625,49.19512939453125L75.533447265625,57.740478515625L78.36474609375,57.740478515625L78.36474609375,51.887451171875L81.077880859375,51.887451171875L81.196044921875,51.7703857421875L81.196044921875,40.415557861328125L84.26318359375,40.415557861328125L84.26318359375,54.579864501953125L84.381103515625,54.6968994140625L87.094482421875,54.6968994140625L87.094482421875,46.26861572265625L89.925537109375,46.26861572265625L89.925537109375,49.07806396484375L95.705810546875,49.07806396484375L95.823974609375,49.19512939453125L95.823974609375,51.887451171875L101.486572265625,51.887451171875L101.486572265625,46.26861572265625L104.317626953125,46.26861572265625L104.317626953125,49.07806396484375L107.148681640625,49.07806396484375L107.148681640625,46.26861572265625L113.04736328125,46.26861572265625L113.04736328125,43.22503662109375L118.70947265625,43.22503662109375L118.70947265625,46.26861572265625L121.65869140625,46.26861572265625L121.776611328125,46.385650634765625L121.776611328125,54.9310302734375L118.70947265625,54.9310302734375L118.70947265625,57.740478515625L127.439208984375,57.740478515625L127.439208984375,66.16879272460938L130.2705078125,66.16879272460938L130.2705078125,68.97824096679688L135.932861328125,68.97824096679688L135.932861328125,66.40289306640625L133.101806640625,66.40289306640625L133.101806640625,63.359344482421875L130.2705078125,63.359344482421875L130.2705078125,60.5499267578125L133.101806640625,60.5499267578125L133.101806640625,57.740478515625L130.2705078125,57.740478515625L130.2705078125,54.9310302734375L127.439208984375,54.9310302734375L127.439208984375,51.887451171875L124.608154296875,51.887451171875L124.608154296875,46.26861572265625L127.439208984375,46.26861572265625L127.439208984375,49.07806396484375L130.2705078125,49.07806396484375L130.2705078125,46.26861572265625L133.33740234375,46.26861572265625L133.33740234375,51.887451171875L135.932861328125,51.887451171875L135.932861328125,49.07806396484375L139,49.07806396484375L139,57.6234130859375L138.8818359375,57.740478515625L136.28662109375,57.740478515625L136.1689453125,57.8575439453125L136.1689453125,66.16879272460938L139,66.16879272460938L139,69.21237182617188L136.1689453125,69.21237182617188L136.1689453125,72.02175903320312L133.33740234375,72.02175903320312L133.33740234375,74.83120727539062L127.439208984375,74.83120727539062L127.439208984375,77.87478637695312L115.996337890625,77.87478637695312L115.87841796875,77.99185180664062L115.87841796875,80.4500732421875L118.70947265625,80.4500732421875L118.70947265625,83.49362182617188L124.608154296875,83.49362182617188L124.608154296875,80.4500732421875L127.439208984375,80.4500732421875L127.439208984375,83.49362182617188L124.608154296875,83.49362182617188L124.608154296875,86.3031005859375L127.439208984375,86.3031005859375L127.439208984375,89.112548828125L130.2705078125,89.112548828125L130.2705078125,86.42013549804688L130.388427734375,86.3031005859375L139,86.3031005859375L139,103.5108642578125L138.8818359375,103.6279296875L136.1689453125,103.6279296875L136.1689453125,109.24685668945312L139,109.24685668945312L139,114.86569213867188L136.1689453125,114.86569213867188L136.1689453125,117.90927124023438L133.33740234375,117.90927124023438L133.33740234375,120.71871948242188L127.439208984375,120.71871948242188L127.439208984375,123.52810668945312L133.33740234375,123.52810668945312L133.33740234375,126.33758544921875L130.2705078125,126.33758544921875L130.2705078125,129.14703369140625L133.33740234375,129.14703369140625L133.33740234375,131.9564208984375L136.1689453125,131.9564208984375L136.1689453125,135L133.101806640625,135L133.101806640625,132.30758666992188L132.983642578125,132.1905517578125L124.608154296875,132.1905517578125L124.608154296875,134.8829345703125L124.489990234375,135L115.87841796875,135L115.87841796875,132.1905517578125L113.04736328125,132.1905517578125L113.04736328125,135L109.97998046875,135L109.97998046875,132.1905517578125L107.148681640625,132.1905517578125L107.148681640625,129.38107299804688L104.317626953125,129.38107299804688L104.317626953125,135L95.588134765625,135L95.588134765625,131.9564208984375L101.486572265625,131.9564208984375L101.486572265625,129.38107299804688L98.655029296875,129.38107299804688L98.655029296875,126.33758544921875L95.823974609375,126.33758544921875L95.823974609375,129.38107299804688L92.7568359375,129.38107299804688L92.7568359375,132.1905517578125L89.925537109375,132.1905517578125L89.925537109375,135L87.094482421875,135L87.094482421875,131.9564208984375L89.925537109375,131.9564208984375L89.925537109375,129.14703369140625L92.7568359375,129.14703369140625L92.7568359375,120.71871948242188L89.925537109375,120.71871948242188L89.925537109375,123.52810668945312L87.094482421875,123.52810668945312L87.094482421875,129.38107299804688L84.02734375,129.38107299804688L84.02734375,126.33758544921875L78.36474609375,126.33758544921875L78.36474609375,129.38107299804688L75.651611328125,129.38107299804688L75.533447265625,129.49819946289062L75.533447265625,135L72.466552734375,135L72.466552734375,132.1905517578125L66.803955078125,132.1905517578125L66.803955078125,129.38107299804688L63.97265625,129.38107299804688L63.97265625,126.33758544921875L61.1416015625,126.33758544921875L61.1416015625,123.52810668945312L58.310546875,123.52810668945312L58.310546875,126.33758544921875L55.2431640625,126.33758544921875L55.2431640625,131.9564208984375L58.310546875,131.9564208984375L58.310546875,135L52.52978515625,135L52.411865234375,134.8829345703125L52.411865234375,132.1905517578125L49.580810546875,132.1905517578125L49.580810546875,134.8829345703125L49.462646484375,135L40.851318359375,135L40.851318359375,132.1905517578125L38.02001953125,132.1905517578125L38.02001953125,135L35.188720703125,135L35.188720703125,129.38107299804688L32.239501953125,129.38107299804688L32.12158203125,129.26409912109375L32.12158203125,120.71871948242188L38.02001953125,120.71871948242188L38.02001953125,117.90927124023438L35.188720703125,117.90927124023438L35.188720703125,114.86569213867188L32.12158203125,114.86569213867188L32.12158203125,106.4373779296875L26.459228515625,106.4373779296875L26.459228515625,103.6279296875L23.6279296875,103.6279296875L23.6279296875,112.05624389648438L17.7294921875,112.05624389648438L17.7294921875,109.24685668945312L12.067138671875,109.24685668945312L12.067138671875,112.05624389648438L9,112.05624389648438L9,109.24685668945312L12.067138671875,109.24685668945312L12.067138671875,106.20327758789062L20.560791015625,106.20327758789062L20.560791015625,100.58444213867188L23.6279296875,100.58444213867188L23.6279296875,97.77496337890625L14.898193359375,97.77496337890625L14.898193359375,100.58444213867188L12.067138671875,100.58444213867188L12.067138671875,103.6279296875L9,103.6279296875L9,94.96551513671875L12.067138671875,94.96551513671875L12.067138671875,97.77496337890625L14.898193359375,97.77496337890625L14.898193359375,92.1561279296875L12.067138671875,92.1561279296875L12.067138671875,89.112548828125L9.1181640625,89.112548828125L9,88.9954833984375L9,77.64065551757812L12.067138671875,77.64065551757812L12.067138671875,74.83120727539062L14.898193359375,74.83120727539062L14.898193359375,69.21237182617188L12.067138671875,69.21237182617188L12.067138671875,60.6669921875L11.94921875,60.5499267578125L9,60.5499267578125L9,57.740478515625L12.067138671875,57.740478515625L12.067138671875,54.9310302734375L9,54.9310302734375L9,51.887451171875L12.067138671875,51.887451171875L12.067138671875,49.07806396484375L9,49.07806396484375L9,46.26861572265625L12.067138671875,46.26861572265625L12.067138671875,40.649749755859375L9,40.649749755859375L9,34.796722412109375L12.067138671875,34.796722412109375L12.067138671875,40.415557861328125L20.560791015625,40.415557861328125L20.560791015625,37.606170654296875L23.6279296875,37.606170654296875L23.6279296875,34.913787841796875L23.745849609375,34.796722412109375L29.29052734375,34.796722412109375L29.29052734375,31.987274169921875L26.459228515625,31.987274169921875L26.459228515625,28.943756103515625L29.29052734375,28.943756103515625L29.29052734375,31.987274169921875L32.12158203125,31.987274169921875L32.12158203125,20.51544189453125L35.188720703125,20.51544189453125L35.188720703125,17.471893310546875L38.02001953125,17.471893310546875L38.02001953125,14.89654541015625L32.12158203125,14.89654541015625L32.12158203125,6M66.803955078125,9.0435791015625L66.803955078125,11.85296630859375L69.63525390625,11.85296630859375L69.63525390625,9.0435791015625L66.803955078125,9.0435791015625M72.702392578125,9.0435791015625L72.702392578125,11.85296630859375L69.871337890625,11.85296630859375L69.871337890625,14.66241455078125L75.533447265625,14.66241455078125L75.533447265625,9.0435791015625L72.702392578125,9.0435791015625M78.36474609375,9.0435791015625L78.36474609375,11.85296630859375L81.196044921875,11.85296630859375L81.196044921875,9.0435791015625L78.36474609375,9.0435791015625M89.925537109375,9.0435791015625L89.925537109375,11.85296630859375L87.094482421875,11.85296630859375L87.094482421875,14.66241455078125L89.925537109375,14.66241455078125L89.925537109375,14.89654541015625L89.925537109375,20.51544189453125L87.094482421875,20.51544189453125L87.094482421875,14.89654541015625L81.43212890625,14.89654541015625L81.43212890625,28.943756103515625L87.094482421875,28.943756103515625L87.094482421875,26.134307861328125L84.02734375,26.134307861328125L84.02734375,23.3248291015625L87.094482421875,23.3248291015625L87.094482421875,26.134307861328125L89.925537109375,26.134307861328125L89.925537109375,23.3248291015625L92.7568359375,23.3248291015625L92.7568359375,26.134307861328125L95.588134765625,26.134307861328125L95.588134765625,23.3248291015625L98.655029296875,23.3248291015625L98.655029296875,20.51544189453125L92.7568359375,20.51544189453125L92.7568359375,14.66241455078125L95.588134765625,14.66241455078125L95.588134765625,11.85296630859375L98.655029296875,11.85296630859375L98.655029296875,9.277679443359375L98.655029296875,9.0435791015625L89.925537109375,9.0435791015625M98.655029296875,11.85296630859375L98.655029296875,20.51544189453125L104.317626953125,20.51544189453125L104.317626953125,17.70599365234375L101.72216796875,17.70599365234375L101.486572265625,17.70599365234375L101.486572265625,11.85296630859375L98.655029296875,11.85296630859375M46.74951171875,14.89654541015625L46.74951171875,17.471893310546875L49.580810546875,17.471893310546875L49.580810546875,14.89654541015625L46.74951171875,14.89654541015625M63.97265625,14.89654541015625L63.97265625,17.70599365234375L58.310546875,17.70599365234375L58.310546875,20.51544189453125L61.1416015625,20.51544189453125L61.1416015625,23.3248291015625L63.97265625,23.3248291015625L63.97265625,20.51544189453125L66.803955078125,20.51544189453125L66.803955078125,17.471893310546875L69.63525390625,17.471893310546875L69.63525390625,14.89654541015625L63.97265625,14.89654541015625M75.533447265625,14.89654541015625L75.533447265625,17.471893310546875L78.36474609375,17.471893310546875L78.36474609375,14.89654541015625L75.533447265625,14.89654541015625M40.851318359375,17.70599365234375L40.851318359375,20.51544189453125L35.188720703125,20.51544189453125L35.188720703125,26.134307861328125L38.02001953125,26.134307861328125L38.02001953125,23.3248291015625L40.851318359375,23.3248291015625L40.851318359375,26.134307861328125L43.682373046875,26.134307861328125L43.682373046875,17.70599365234375L40.851318359375,17.70599365234375M49.580810546875,17.70599365234375L49.580810546875,20.51544189453125L52.411865234375,20.51544189453125L52.411865234375,17.70599365234375L49.580810546875,17.70599365234375M55.2431640625,20.51544189453125L55.2431640625,23.3248291015625L58.074462890625,23.3248291015625L58.074462890625,20.51544189453125L55.2431640625,20.51544189453125M69.871337890625,20.51544189453125L69.871337890625,28.943756103515625L78.36474609375,28.943756103515625L78.36474609375,20.51544189453125L69.871337890625,20.51544189453125M46.74951171875,23.3248291015625L46.74951171875,26.134307861328125L43.91845703125,26.134307861328125L43.91845703125,28.943756103515625L46.74951171875,28.943756103515625L46.74951171875,31.987274169921875L49.580810546875,31.987274169921875L49.580810546875,23.5589599609375L49.580810546875,23.3248291015625L46.74951171875,23.3248291015625M52.411865234375,23.3248291015625L52.411865234375,28.943756103515625L61.1416015625,28.943756103515625L61.1416015625,23.3248291015625L58.310546875,23.3248291015625L58.310546875,26.134307861328125L55.2431640625,26.134307861328125L55.2431640625,23.3248291015625L52.411865234375,23.3248291015625M63.97265625,23.3248291015625L63.97265625,26.134307861328125L66.803955078125,26.134307861328125L66.803955078125,23.3248291015625L63.97265625,23.3248291015625M98.655029296875,23.3248291015625L98.655029296875,26.134307861328125L95.823974609375,26.134307861328125L95.823974609375,28.943756103515625L98.655029296875,28.943756103515625L98.655029296875,31.987274169921875L101.486572265625,31.987274169921875L101.486572265625,23.5589599609375L101.486572265625,23.3248291015625L98.655029296875,23.3248291015625M104.317626953125,23.3248291015625L104.317626953125,31.987274169921875L104.553466796875,31.987274169921875L107.148681640625,31.987274169921875L107.148681640625,23.5589599609375L107.148681640625,23.3248291015625L104.317626953125,23.3248291015625M63.97265625,29.177886962890625L63.97265625,31.987274169921875L66.803955078125,31.987274169921875L66.803955078125,29.177886962890625L63.97265625,29.177886962890625M87.094482421875,29.177886962890625L87.094482421875,31.987274169921875L89.925537109375,31.987274169921875L89.925537109375,37.606170654296875L95.588134765625,37.606170654296875L95.588134765625,34.796722412109375L92.7568359375,34.796722412109375L92.7568359375,29.177886962890625L87.094482421875,29.177886962890625M32.357421875,31.987274169921875L32.357421875,34.796722412109375L29.29052734375,34.796722412109375L29.29052734375,37.606170654296875L35.188720703125,37.606170654296875L35.188720703125,37.606170654296875L35.188720703125,34.796722412109375L38.02001953125,34.796722412109375L38.02001953125,31.987274169921875L32.357421875,31.987274169921875M40.851318359375,31.987274169921875L40.851318359375,34.796722412109375L38.02001953125,34.796722412109375L38.02001953125,37.606170654296875L35.188720703125,37.606170654296875L35.188720703125,40.649749755859375L32.357421875,40.649749755859375L32.357421875,46.26861572265625L35.188720703125,46.26861572265625L35.188720703125,43.22503662109375L38.02001953125,43.22503662109375L38.02001953125,40.415557861328125L40.851318359375,40.415557861328125L40.851318359375,43.22503662109375L43.682373046875,43.22503662109375L43.682373046875,40.415557861328125L46.513427734375,40.415557861328125L46.513427734375,31.987274169921875L40.851318359375,31.987274169921875M55.2431640625,31.987274169921875L55.2431640625,37.606170654296875L58.074462890625,37.606170654296875L58.074462890625,34.796722412109375L61.1416015625,34.796722412109375L61.1416015625,37.606170654296875L58.310546875,37.606170654296875L58.310546875,40.649749755859375L55.2431640625,40.649749755859375L55.2431640625,43.22503662109375L55.47900390625,43.22503662109375L66.803955078125,43.22503662109375L66.803955078125,46.26861572265625L69.63525390625,46.26861572265625L69.63525390625,43.22503662109375L72.466552734375,43.22503662109375L72.466552734375,37.606170654296875L75.533447265625,37.606170654296875L75.533447265625,37.606170654296875L75.533447265625,31.987274169921875L72.702392578125,31.987274169921875L72.702392578125,34.796722412109375L69.871337890625,34.796722412109375L69.871337890625,37.606170654296875L66.803955078125,37.606170654296875L66.803955078125,40.649749755859375L63.97265625,40.649749755859375L63.97265625,37.606170654296875L66.803955078125,37.606170654296875L66.803955078125,34.796722412109375L63.97265625,34.796722412109375L63.97265625,31.987274169921875L55.2431640625,31.987274169921875M81.43212890625,31.987274169921875L81.43212890625,34.796722412109375L84.02734375,34.796722412109375L84.02734375,31.987274169921875L81.43212890625,31.987274169921875M101.486572265625,31.987274169921875L101.486572265625,37.606170654296875L104.317626953125,37.606170654296875L104.317626953125,31.987274169921875L101.486572265625,31.987274169921875M118.70947265625,31.987274169921875L118.70947265625,34.796722412109375L121.540771484375,34.796722412109375L121.540771484375,31.987274169921875L118.70947265625,31.987274169921875M130.2705078125,31.987274169921875L130.2705078125,34.796722412109375L133.101806640625,34.796722412109375L133.101806640625,31.987274169921875L130.2705078125,31.987274169921875M121.776611328125,34.796722412109375L121.776611328125,37.606170654296875L124.608154296875,37.606170654296875L124.608154296875,34.796722412109375L121.776611328125,34.796722412109375M23.6279296875,37.606170654296875L23.6279296875,40.649749755859375L20.796630859375,40.649749755859375L20.796630859375,46.26861572265625L29.29052734375,46.26861572265625L29.29052734375,43.459136962890625L26.459228515625,43.459136962890625L26.459228515625,40.415557861328125L29.29052734375,40.415557861328125L29.29052734375,37.606170654296875L23.6279296875,37.606170654296875M52.411865234375,37.606170654296875L52.411865234375,40.415557861328125L55.2431640625,40.415557861328125L55.2431640625,37.606170654296875L52.411865234375,37.606170654296875M14.898193359375,43.459136962890625L14.898193359375,46.26861572265625L17.7294921875,46.26861572265625L17.7294921875,43.459136962890625L14.898193359375,43.459136962890625M49.580810546875,43.459136962890625L49.580810546875,46.26861572265625L43.91845703125,46.26861572265625L43.91845703125,51.887451171875L52.411865234375,51.887451171875L52.411865234375,46.26861572265625L55.2431640625,46.26861572265625L55.2431640625,43.459136962890625L49.580810546875,43.459136962890625M72.702392578125,43.459136962890625L72.702392578125,46.26861572265625L75.533447265625,46.26861572265625L75.533447265625,43.459136962890625L72.702392578125,43.459136962890625M12.067138671875,46.26861572265625L12.067138671875,49.07806396484375L14.898193359375,49.07806396484375L14.898193359375,46.26861572265625L12.067138671875,46.26861572265625M35.188720703125,46.26861572265625L35.188720703125,49.07806396484375L40.851318359375,49.07806396484375L40.851318359375,46.26861572265625L35.188720703125,46.26861572265625M61.1416015625,46.26861572265625L61.1416015625,49.07806396484375L63.97265625,49.07806396484375L63.97265625,46.26861572265625L61.1416015625,46.26861572265625M69.871337890625,46.26861572265625L69.871337890625,51.887451171875L72.466552734375,51.887451171875L72.466552734375,46.26861572265625L69.871337890625,46.26861572265625M14.898193359375,49.07806396484375L14.898193359375,57.740478515625L17.7294921875,57.740478515625L17.7294921875,54.6968994140625L20.560791015625,54.6968994140625L20.560791015625,49.07806396484375L14.898193359375,49.07806396484375M26.459228515625,49.07806396484375L26.459228515625,51.887451171875L29.29052734375,51.887451171875L29.29052734375,54.9310302734375L20.796630859375,54.9310302734375L20.796630859375,57.740478515625L17.965576171875,57.740478515625L17.965576171875,60.5499267578125L14.898193359375,60.5499267578125L14.898193359375,63.359344482421875L20.560791015625,63.359344482421875L20.560791015625,60.5499267578125L23.6279296875,60.5499267578125L23.6279296875,57.974609375L23.86376953125,57.740478515625L32.12158203125,57.740478515625L32.12158203125,49.07806396484375L26.459228515625,49.07806396484375M55.2431640625,49.07806396484375L55.2431640625,51.887451171875L52.411865234375,51.887451171875L52.411865234375,54.9310302734375L49.580810546875,54.9310302734375L49.580810546875,57.740478515625L55.2431640625,57.740478515625L55.2431640625,54.6968994140625L58.074462890625,54.6968994140625L58.074462890625,51.887451171875L61.1416015625,51.887451171875L61.1416015625,49.07806396484375L55.2431640625,49.07806396484375M107.384765625,49.07806396484375L107.384765625,54.9310302734375L104.317626953125,54.9310302734375L104.317626953125,57.740478515625L107.384765625,57.740478515625L107.384765625,60.5499267578125L109.97998046875,60.5499267578125L109.97998046875,60.5499267578125L109.97998046875,51.887451171875L115.87841796875,51.887451171875L115.87841796875,49.07806396484375L107.384765625,49.07806396484375M38.02001953125,51.887451171875L38.02001953125,54.6968994140625L43.682373046875,54.6968994140625L43.682373046875,51.887451171875L38.02001953125,51.887451171875M61.1416015625,51.887451171875L61.1416015625,54.6968994140625L63.97265625,54.6968994140625L63.97265625,51.887451171875L61.1416015625,51.887451171875M66.803955078125,51.887451171875L66.803955078125,54.6968994140625L69.63525390625,54.6968994140625L69.63525390625,51.887451171875L66.803955078125,51.887451171875M92.7568359375,51.887451171875L92.7568359375,54.6968994140625L95.588134765625,54.6968994140625L95.588134765625,51.887451171875L92.7568359375,51.887451171875M101.486572265625,51.887451171875L101.486572265625,54.6968994140625L104.317626953125,54.6968994140625L104.317626953125,51.887451171875L101.486572265625,51.887451171875M130.2705078125,51.887451171875L130.2705078125,54.6968994140625L133.101806640625,54.6968994140625L133.101806640625,51.887451171875L130.2705078125,51.887451171875M35.188720703125,54.9310302734375L35.188720703125,57.740478515625L38.02001953125,57.740478515625L38.02001953125,54.9310302734375L35.188720703125,54.9310302734375M58.310546875,54.9310302734375L58.310546875,57.740478515625L61.1416015625,57.740478515625L61.1416015625,54.9310302734375L58.310546875,54.9310302734375M63.97265625,54.9310302734375L63.97265625,66.16879272460938L64.208740234375,66.16879272460938L66.803955078125,66.16879272460938L66.803955078125,55.165130615234375L66.803955078125,54.9310302734375L63.97265625,54.9310302734375M89.925537109375,54.9310302734375L89.925537109375,57.740478515625L92.7568359375,57.740478515625L92.7568359375,54.9310302734375L89.925537109375,54.9310302734375M98.655029296875,54.9310302734375L98.655029296875,57.740478515625L101.486572265625,57.740478515625L101.486572265625,54.9310302734375L98.655029296875,54.9310302734375M133.33740234375,54.9310302734375L133.33740234375,57.740478515625L135.932861328125,57.740478515625L135.932861328125,54.9310302734375L133.33740234375,54.9310302734375M32.357421875,57.740478515625L32.357421875,60.5499267578125L26.459228515625,60.5499267578125L26.459228515625,63.359344482421875L26.6953125,63.359344482421875L35.188720703125,63.359344482421875L35.188720703125,74.83120727539062L38.02001953125,74.83120727539062L38.02001953125,74.83120727539062L38.02001953125,66.16879272460938L40.851318359375,66.16879272460938L40.851318359375,63.359344482421875L38.02001953125,63.359344482421875L38.02001953125,60.5499267578125L35.188720703125,60.5499267578125L35.188720703125,57.740478515625L32.357421875,57.740478515625M38.02001953125,57.740478515625L38.02001953125,60.5499267578125L40.851318359375,60.5499267578125L40.851318359375,57.740478515625L38.02001953125,57.740478515625M55.2431640625,57.740478515625L55.2431640625,60.5499267578125L58.074462890625,60.5499267578125L58.074462890625,57.740478515625L55.2431640625,57.740478515625M72.702392578125,57.740478515625L72.702392578125,60.5499267578125L75.533447265625,60.5499267578125L75.533447265625,57.740478515625L72.702392578125,57.740478515625M78.36474609375,57.740478515625L78.36474609375,60.5499267578125L81.196044921875,60.5499267578125L81.196044921875,57.740478515625L78.36474609375,57.740478515625M84.26318359375,57.740478515625L84.26318359375,60.5499267578125L87.094482421875,60.5499267578125L87.094482421875,57.740478515625L84.26318359375,57.740478515625M92.7568359375,57.740478515625L92.7568359375,60.5499267578125L95.823974609375,60.5499267578125L95.823974609375,63.359344482421875L92.7568359375,63.359344482421875L92.7568359375,69.21237182617188L89.925537109375,69.21237182617188L89.925537109375,72.02175903320312L92.7568359375,72.02175903320312L92.7568359375,74.83120727539062L101.486572265625,74.83120727539062L101.486572265625,80.4500732421875L107.384765625,80.4500732421875L107.384765625,83.49362182617188L109.97998046875,83.49362182617188L109.97998046875,77.87478637695312L104.317626953125,77.87478637695312L104.317626953125,74.83120727539062L107.148681640625,74.83120727539062L107.148681640625,72.02175903320312L101.486572265625,72.02175903320312L101.486572265625,69.21237182617188L98.655029296875,69.21237182617188L98.655029296875,72.02175903320312L95.588134765625,72.02175903320312L95.588134765625,68.97824096679688L98.655029296875,68.97824096679688L98.655029296875,57.740478515625L92.7568359375,57.740478515625M101.486572265625,57.740478515625L101.486572265625,60.5499267578125L104.317626953125,60.5499267578125L104.317626953125,57.740478515625L101.486572265625,57.740478515625M113.04736328125,57.740478515625L113.04736328125,63.359344482421875L115.87841796875,63.359344482421875L115.87841796875,60.5499267578125L118.70947265625,60.5499267578125L118.70947265625,57.740478515625L113.04736328125,57.740478515625M40.851318359375,60.5499267578125L40.851318359375,63.359344482421875L46.74951171875,63.359344482421875L46.74951171875,63.59344482421875L46.74951171875,66.16879272460938L49.580810546875,66.16879272460938L49.580810546875,60.5499267578125L40.851318359375,60.5499267578125M52.411865234375,60.5499267578125L52.411865234375,63.359344482421875L55.2431640625,63.359344482421875L55.2431640625,60.5499267578125L52.411865234375,60.5499267578125M69.871337890625,60.5499267578125L69.871337890625,63.359344482421875L72.466552734375,63.359344482421875L72.466552734375,60.5499267578125L69.871337890625,60.5499267578125M81.43212890625,60.5499267578125L81.43212890625,66.16879272460938L87.094482421875,66.16879272460938L87.094482421875,63.359344482421875L84.02734375,63.359344482421875L84.02734375,60.5499267578125L81.43212890625,60.5499267578125M87.094482421875,60.5499267578125L87.094482421875,63.359344482421875L89.925537109375,63.359344482421875L89.925537109375,60.5499267578125L87.094482421875,60.5499267578125M104.317626953125,60.5499267578125L104.317626953125,63.359344482421875L107.148681640625,63.359344482421875L107.148681640625,60.5499267578125L104.317626953125,60.5499267578125M118.70947265625,60.5499267578125L118.70947265625,63.359344482421875L121.540771484375,63.359344482421875L121.540771484375,60.5499267578125L118.70947265625,60.5499267578125M55.2431640625,63.359344482421875L55.2431640625,66.16879272460938L58.074462890625,66.16879272460938L58.074462890625,63.359344482421875L55.2431640625,63.359344482421875M101.486572265625,63.359344482421875L101.486572265625,68.97824096679688L104.317626953125,68.97824096679688L104.317626953125,63.359344482421875L101.486572265625,63.359344482421875M107.384765625,63.359344482421875L107.384765625,68.97824096679688L109.97998046875,68.97824096679688L109.97998046875,66.16879272460938L113.04736328125,66.16879272460938L113.04736328125,63.359344482421875L107.384765625,63.359344482421875M23.6279296875,66.40289306640625L23.6279296875,74.83120727539062L32.12158203125,74.83120727539062L32.12158203125,66.40289306640625L23.6279296875,66.40289306640625M43.91845703125,66.40289306640625L43.91845703125,68.97824096679688L46.513427734375,68.97824096679688L46.513427734375,66.40289306640625L43.91845703125,66.40289306640625M61.1416015625,66.40289306640625L61.1416015625,68.97824096679688L63.97265625,68.97824096679688L63.97265625,66.40289306640625L61.1416015625,66.40289306640625M69.871337890625,66.40289306640625L69.871337890625,74.83120727539062L78.36474609375,74.83120727539062L78.36474609375,66.40289306640625L69.871337890625,66.40289306640625M87.094482421875,66.40289306640625L87.094482421875,68.97824096679688L89.925537109375,68.97824096679688L89.925537109375,66.40289306640625L87.094482421875,66.40289306640625M115.87841796875,66.40289306640625L115.87841796875,74.83120727539062L124.608154296875,74.83120727539062L124.608154296875,66.40289306640625L115.87841796875,66.40289306640625M17.965576171875,69.21237182617188L17.965576171875,72.02175903320312L20.560791015625,72.02175903320312L20.560791015625,69.21237182617188L17.965576171875,69.21237182617188M40.851318359375,69.21237182617188L40.851318359375,72.02175903320312L43.682373046875,72.02175903320312L43.682373046875,69.21237182617188L40.851318359375,69.21237182617188M46.74951171875,69.21237182617188L46.74951171875,72.02175903320312L49.580810546875,72.02175903320312L49.580810546875,69.21237182617188L46.74951171875,69.21237182617188M58.310546875,69.21237182617188L58.310546875,72.02175903320312L55.2431640625,72.02175903320312L55.2431640625,77.64065551757812L58.074462890625,77.64065551757812L58.074462890625,74.83120727539062L61.1416015625,74.83120727539062L61.1416015625,69.21237182617188L58.310546875,69.21237182617188M84.26318359375,69.21237182617188L84.26318359375,72.02175903320312L87.094482421875,72.02175903320312L87.094482421875,69.21237182617188L84.26318359375,69.21237182617188M110.2158203125,69.21237182617188L110.2158203125,77.64065551757812L113.04736328125,77.64065551757812L113.04736328125,69.21237182617188L110.2158203125,69.21237182617188M87.094482421875,72.02175903320312L87.094482421875,80.4500732421875L92.7568359375,80.4500732421875L92.7568359375,74.83120727539062L89.925537109375,74.83120727539062L89.925537109375,72.02175903320312L87.094482421875,72.02175903320312M49.580810546875,74.83120727539062L49.580810546875,77.64065551757812L52.411865234375,77.64065551757812L52.411865234375,74.83120727539062L49.580810546875,74.83120727539062M81.43212890625,74.83120727539062L81.43212890625,77.64065551757812L84.02734375,77.64065551757812L84.02734375,74.83120727539062L81.43212890625,74.83120727539062M20.796630859375,77.87478637695312L20.796630859375,80.4500732421875L23.6279296875,80.4500732421875L23.6279296875,77.87478637695312L20.796630859375,77.87478637695312M26.459228515625,77.87478637695312L26.459228515625,80.4500732421875L29.29052734375,80.4500732421875L29.29052734375,77.87478637695312L26.459228515625,77.87478637695312M32.357421875,77.87478637695312L32.357421875,80.4500732421875L35.188720703125,80.4500732421875L35.188720703125,77.87478637695312L32.357421875,77.87478637695312M38.02001953125,77.87478637695312L38.02001953125,83.49362182617188L35.188720703125,83.49362182617188L35.188720703125,94.96551513671875L40.851318359375,94.96551513671875L40.851318359375,92.1561279296875L38.02001953125,92.1561279296875L38.02001953125,89.112548828125L43.682373046875,89.112548828125L43.682373046875,86.3031005859375L41.087158203125,86.3031005859375L40.851318359375,86.3031005859375L40.851318359375,77.87478637695312L38.02001953125,77.87478637695312M52.411865234375,77.87478637695312L52.411865234375,80.4500732421875L55.2431640625,80.4500732421875L55.2431640625,77.87478637695312L52.411865234375,77.87478637695312M63.97265625,77.87478637695312L63.97265625,83.49362182617188L61.1416015625,83.49362182617188L61.1416015625,86.3031005859375L66.803955078125,86.3031005859375L66.803955078125,86.53720092773438L66.803955078125,89.112548828125L69.871337890625,89.112548828125L69.871337890625,94.96551513671875L66.803955078125,94.96551513671875L66.803955078125,100.58444213867188L69.871337890625,100.58444213867188L69.871337890625,103.39382934570312L70.10693359375,103.39382934570312L75.533447265625,103.39382934570312L75.533447265625,109.24685668945312L84.26318359375,109.24685668945312L84.26318359375,109.48095703125L84.26318359375,112.05624389648438L89.925537109375,112.05624389648438L89.925537109375,109.24685668945312L87.094482421875,109.24685668945312L87.094482421875,103.39382934570312L92.7568359375,103.39382934570312L92.7568359375,103.39382934570312L92.7568359375,92.1561279296875L89.925537109375,92.1561279296875L89.925537109375,97.77496337890625L87.094482421875,97.77496337890625L87.094482421875,95.19961547851562L87.094482421875,94.96551513671875L81.196044921875,94.96551513671875L81.196044921875,92.39016723632812L81.196044921875,92.1561279296875L72.466552734375,92.1561279296875L72.466552734375,86.3031005859375L75.533447265625,86.3031005859375L75.533447265625,89.112548828125L75.76953125,89.112548828125L87.094482421875,89.112548828125L87.094482421875,89.34658813476562L87.094482421875,91.92193603515625L89.925537109375,91.92193603515625L89.925537109375,86.3031005859375L87.094482421875,86.3031005859375L87.094482421875,83.49362182617188L84.26318359375,83.49362182617188L84.26318359375,86.3031005859375L78.36474609375,86.3031005859375L78.36474609375,80.68423461914062L75.533447265625,80.68423461914062L75.533447265625,77.87478637695312L72.702392578125,77.87478637695312L72.702392578125,83.49362182617188L66.803955078125,83.49362182617188L66.803955078125,80.4500732421875L69.63525390625,80.4500732421875L69.63525390625,77.87478637695312L63.97265625,77.87478637695312M95.823974609375,77.87478637695312L95.823974609375,80.68423461914062L92.7568359375,80.68423461914062L92.7568359375,83.49362182617188L98.655029296875,83.49362182617188L98.655029296875,77.87478637695312L95.823974609375,77.87478637695312M12.067138671875,80.68423461914062L12.067138671875,89.112548828125L12.302978515625,89.112548828125L14.898193359375,89.112548828125L14.898193359375,91.92193603515625L17.7294921875,91.92193603515625L17.7294921875,89.34658813476562L17.965576171875,89.112548828125L26.459228515625,89.112548828125L26.459228515625,86.3031005859375L23.6279296875,86.3031005859375L23.6279296875,83.49362182617188L20.796630859375,83.49362182617188L20.796630859375,86.3031005859375L20.796630859375,86.3031005859375L14.898193359375,86.3031005859375L14.898193359375,83.49362182617188L17.7294921875,83.49362182617188L17.7294921875,80.68423461914062L12.067138671875,80.68423461914062M23.6279296875,80.68423461914062L23.6279296875,83.49362182617188L26.459228515625,83.49362182617188L26.459228515625,80.68423461914062L23.6279296875,80.68423461914062M29.29052734375,80.68423461914062L29.29052734375,83.49362182617188L32.12158203125,83.49362182617188L32.12158203125,80.68423461914062L29.29052734375,80.68423461914062M49.580810546875,80.68423461914062L49.580810546875,86.3031005859375L46.74951171875,86.3031005859375L46.74951171875,89.112548828125L43.91845703125,89.112548828125L43.91845703125,94.96551513671875L46.74951171875,94.96551513671875L46.74951171875,95.19961547851562L46.74951171875,109.24685668945312L49.580810546875,109.24685668945312L49.580810546875,103.39382934570312L52.411865234375,103.39382934570312L52.411865234375,100.58444213867188L49.580810546875,100.58444213867188L49.580810546875,97.77496337890625L52.411865234375,97.77496337890625L52.411865234375,100.58444213867188L55.2431640625,100.58444213867188L55.2431640625,103.39382934570312L61.1416015625,103.39382934570312L61.1416015625,106.4373779296875L55.47900390625,106.4373779296875L55.2431640625,106.4373779296875L55.2431640625,103.6279296875L52.411865234375,103.6279296875L52.411865234375,112.05624389648438L52.64794921875,112.05624389648438L55.2431640625,112.05624389648438L55.2431640625,114.86569213867188L52.411865234375,114.86569213867188L52.411865234375,112.29034423828125L52.411865234375,112.05624389648438L46.513427734375,112.05624389648438L46.513427734375,109.24685668945312L40.851318359375,109.24685668945312L40.851318359375,106.4373779296875L35.188720703125,106.4373779296875L35.188720703125,109.24685668945312L38.02001953125,109.24685668945312L38.02001953125,112.05624389648438L35.188720703125,112.05624389648438L35.188720703125,114.86569213867188L38.02001953125,114.86569213867188L38.02001953125,117.6751708984375L43.682373046875,117.6751708984375L43.682373046875,114.86569213867188L46.74951171875,114.86569213867188L46.74951171875,120.71871948242188L49.580810546875,120.71871948242188L49.580810546875,123.52810668945312L46.74951171875,123.52810668945312L46.74951171875,126.33758544921875L43.682373046875,126.33758544921875L43.682373046875,123.52810668945312L46.513427734375,123.52810668945312L46.513427734375,120.71871948242188L40.851318359375,120.71871948242188L40.851318359375,131.9564208984375L46.513427734375,131.9564208984375L46.513427734375,129.38107299804688L46.74951171875,129.14703369140625L52.411865234375,129.14703369140625L52.411865234375,117.6751708984375L58.074462890625,117.6751708984375L58.074462890625,117.6751708984375L58.074462890625,114.86569213867188L61.1416015625,114.86569213867188L61.1416015625,117.90927124023438L58.310546875,117.90927124023438L58.310546875,120.71871948242188L61.1416015625,120.71871948242188L61.1416015625,123.52810668945312L63.97265625,123.52810668945312L63.97265625,126.33758544921875L66.803955078125,126.33758544921875L66.803955078125,120.71871948242188L63.97265625,120.71871948242188L63.97265625,109.48095703125L64.208740234375,109.24685668945312L66.803955078125,109.24685668945312L66.803955078125,106.4373779296875L63.97265625,106.4373779296875L63.97265625,103.39382934570312L66.803955078125,103.39382934570312L66.803955078125,100.58444213867188L63.97265625,100.58444213867188L63.97265625,94.96551513671875L61.1416015625,94.96551513671875L61.1416015625,91.92193603515625L63.97265625,91.92193603515625L63.97265625,89.112548828125L61.1416015625,89.112548828125L61.1416015625,86.3031005859375L58.310546875,86.3031005859375L58.310546875,89.112548828125L55.2431640625,89.112548828125L55.2431640625,94.96551513671875L49.580810546875,94.96551513671875L49.580810546875,91.92193603515625L52.411865234375,91.92193603515625L52.411865234375,89.112548828125L55.2431640625,89.112548828125L55.2431640625,86.3031005859375L58.074462890625,86.3031005859375L58.074462890625,83.49362182617188L52.411865234375,83.49362182617188L52.411865234375,80.68423461914062L49.580810546875,80.68423461914062M58.310546875,80.68423461914062L58.310546875,83.49362182617188L61.1416015625,83.49362182617188L61.1416015625,80.68423461914062L58.310546875,80.68423461914062M81.43212890625,80.68423461914062L81.43212890625,83.49362182617188L84.02734375,83.49362182617188L84.02734375,80.68423461914062L81.43212890625,80.68423461914062M26.459228515625,83.49362182617188L26.459228515625,86.3031005859375L29.29052734375,86.3031005859375L29.29052734375,83.49362182617188L26.459228515625,83.49362182617188M43.91845703125,83.49362182617188L43.91845703125,86.3031005859375L46.513427734375,86.3031005859375L46.513427734375,83.49362182617188L43.91845703125,83.49362182617188M98.655029296875,83.49362182617188L98.655029296875,91.92193603515625L110.2158203125,91.92193603515625L110.2158203125,92.1561279296875L110.2158203125,94.96551513671875L113.04736328125,94.96551513671875L113.04736328125,91.92193603515625L115.87841796875,91.92193603515625L115.87841796875,97.77496337890625L118.70947265625,97.77496337890625L118.70947265625,91.92193603515625L124.608154296875,91.92193603515625L124.608154296875,94.96551513671875L121.776611328125,94.96551513671875L121.776611328125,97.77496337890625L124.608154296875,97.77496337890625L124.608154296875,100.58444213867188L133.101806640625,100.58444213867188L133.101806640625,94.96551513671875L130.2705078125,94.96551513671875L130.2705078125,92.1561279296875L127.439208984375,92.1561279296875L127.439208984375,89.112548828125L124.608154296875,89.112548828125L124.608154296875,86.3031005859375L121.776611328125,86.3031005859375L121.776611328125,89.112548828125L115.87841796875,89.112548828125L115.87841796875,86.3031005859375L113.04736328125,86.3031005859375L113.04736328125,89.112548828125L107.148681640625,89.112548828125L107.148681640625,83.49362182617188L104.317626953125,83.49362182617188L104.317626953125,86.3031005859375L101.486572265625,86.3031005859375L101.486572265625,83.49362182617188L98.655029296875,83.49362182617188M29.29052734375,86.3031005859375L29.29052734375,89.112548828125L26.459228515625,89.112548828125L26.459228515625,91.92193603515625L32.12158203125,91.92193603515625L32.12158203125,86.3031005859375L29.29052734375,86.3031005859375M92.7568359375,86.3031005859375L92.7568359375,91.92193603515625L95.588134765625,91.92193603515625L95.588134765625,86.3031005859375L92.7568359375,86.3031005859375M130.2705078125,89.112548828125L130.2705078125,91.92193603515625L133.33740234375,91.92193603515625L133.33740234375,94.96551513671875L135.932861328125,94.96551513671875L135.932861328125,89.112548828125L130.2705078125,89.112548828125M23.6279296875,92.1561279296875L23.6279296875,97.77496337890625L29.29052734375,97.77496337890625L29.29052734375,100.58444213867188L32.357421875,100.58444213867188L32.357421875,103.39382934570312L40.851318359375,103.39382934570312L40.851318359375,97.77496337890625L38.02001953125,97.77496337890625L38.02001953125,100.58444213867188L35.188720703125,100.58444213867188L35.188720703125,97.77496337890625L32.12158203125,97.77496337890625L32.12158203125,94.96551513671875L26.459228515625,94.96551513671875L26.459228515625,92.1561279296875L23.6279296875,92.1561279296875M63.97265625,92.1561279296875L63.97265625,94.96551513671875L66.803955078125,94.96551513671875L66.803955078125,92.1561279296875L63.97265625,92.1561279296875M95.823974609375,92.1561279296875L95.823974609375,94.96551513671875L98.655029296875,94.96551513671875L98.655029296875,92.1561279296875L95.823974609375,92.1561279296875M98.655029296875,94.96551513671875L98.655029296875,97.77496337890625L101.486572265625,97.77496337890625L101.486572265625,94.96551513671875L98.655029296875,94.96551513671875M95.823974609375,97.77496337890625L95.823974609375,100.58444213867188L98.655029296875,100.58444213867188L98.655029296875,97.77496337890625L95.823974609375,97.77496337890625M101.486572265625,97.77496337890625L101.486572265625,100.58444213867188L98.655029296875,100.58444213867188L98.655029296875,103.39382934570312L98.89111328125,103.39382934570312L110.2158203125,103.39382934570312L110.2158203125,106.20327758789062L113.04736328125,106.20327758789062L113.04736328125,109.24685668945312L118.70947265625,109.24685668945312L118.70947265625,103.39382934570312L121.776611328125,103.39382934570312L121.776611328125,109.24685668945312L124.608154296875,109.24685668945312L124.608154296875,106.20327758789062L130.2705078125,106.20327758789062L130.2705078125,103.6279296875L124.608154296875,103.6279296875L124.608154296875,100.58444213867188L115.87841796875,100.58444213867188L115.87841796875,97.77496337890625L113.04736328125,97.77496337890625L113.04736328125,100.58444213867188L109.97998046875,100.58444213867188L109.97998046875,98.00909423828125L109.97998046875,97.77496337890625L101.486572265625,97.77496337890625M26.459228515625,100.58444213867188L26.459228515625,103.39382934570312L29.29052734375,103.39382934570312L29.29052734375,100.58444213867188L26.459228515625,100.58444213867188M133.33740234375,100.58444213867188L133.33740234375,103.39382934570312L135.932861328125,103.39382934570312L135.932861328125,100.58444213867188L133.33740234375,100.58444213867188M40.851318359375,103.6279296875L40.851318359375,106.20327758789062L43.682373046875,106.20327758789062L43.682373046875,103.6279296875L40.851318359375,103.6279296875M92.7568359375,103.6279296875L92.7568359375,114.86569213867188L95.588134765625,114.86569213867188L95.588134765625,114.86569213867188L95.588134765625,106.20327758789062L98.655029296875,106.20327758789062L98.655029296875,103.6279296875L92.7568359375,103.6279296875M69.871337890625,106.4373779296875L69.871337890625,109.24685668945312L72.466552734375,109.24685668945312L72.466552734375,106.4373779296875L69.871337890625,106.4373779296875M104.317626953125,106.4373779296875L104.317626953125,109.24685668945312L101.486572265625,109.24685668945312L101.486572265625,112.05624389648438L98.655029296875,112.05624389648438L98.655029296875,114.86569213867188L104.317626953125,114.86569213867188L104.317626953125,112.05624389648438L107.148681640625,112.05624389648438L107.148681640625,106.4373779296875L104.317626953125,106.4373779296875M110.2158203125,109.24685668945312L110.2158203125,117.6751708984375L113.04736328125,117.6751708984375L113.04736328125,109.24685668945312L110.2158203125,109.24685668945312M130.2705078125,109.24685668945312L130.2705078125,114.86569213867188L127.439208984375,114.86569213867188L127.439208984375,117.6751708984375L133.101806640625,117.6751708984375L133.101806640625,112.05624389648438L135.932861328125,112.05624389648438L135.932861328125,109.24685668945312L130.2705078125,109.24685668945312M69.871337890625,112.05624389648438L69.871337890625,120.71871948242188L78.36474609375,120.71871948242188L78.36474609375,112.05624389648438L69.871337890625,112.05624389648438M115.87841796875,112.05624389648438L115.87841796875,120.71871948242188L124.608154296875,120.71871948242188L124.608154296875,112.05624389648438L115.87841796875,112.05624389648438M81.43212890625,117.90927124023438L81.43212890625,120.71871948242188L87.094482421875,120.71871948242188L87.094482421875,117.90927124023438L81.43212890625,117.90927124023438M95.823974609375,117.90927124023438L95.823974609375,123.52810668945312L98.655029296875,123.52810668945312L98.655029296875,120.71871948242188L101.486572265625,120.71871948242188L101.486572265625,117.90927124023438L95.823974609375,117.90927124023438M104.317626953125,117.90927124023438L104.317626953125,120.71871948242188L107.148681640625,120.71871948242188L107.148681640625,117.90927124023438L104.317626953125,117.90927124023438M55.2431640625,120.71871948242188L55.2431640625,123.52810668945312L58.074462890625,123.52810668945312L58.074462890625,120.71871948242188L55.2431640625,120.71871948242188M101.486572265625,120.71871948242188L101.486572265625,123.52810668945312L104.317626953125,123.52810668945312L104.317626953125,120.71871948242188L101.486572265625,120.71871948242188M110.2158203125,120.71871948242188L110.2158203125,126.33758544921875L107.384765625,126.33758544921875L107.384765625,129.14703369140625L113.04736328125,129.14703369140625L113.04736328125,126.57168579101562L113.283203125,126.33758544921875L121.540771484375,126.33758544921875L121.540771484375,123.52810668945312L113.283203125,123.52810668945312L113.04736328125,123.52810668945312L113.04736328125,120.71871948242188L110.2158203125,120.71871948242188M69.871337890625,123.52810668945312L69.871337890625,126.33758544921875L78.36474609375,126.33758544921875L78.36474609375,123.52810668945312L69.871337890625,123.52810668945312M35.188720703125,126.33758544921875L35.188720703125,129.14703369140625L38.02001953125,129.14703369140625L38.02001953125,126.33758544921875L35.188720703125,126.33758544921875M66.803955078125,126.33758544921875L66.803955078125,129.14703369140625L69.63525390625,129.14703369140625L69.63525390625,126.33758544921875L66.803955078125,126.33758544921875M101.486572265625,126.33758544921875L101.486572265625,129.14703369140625L104.317626953125,129.14703369140625L104.317626953125,126.33758544921875L101.486572265625,126.33758544921875M121.776611328125,126.33758544921875L121.776611328125,129.14703369140625L124.608154296875,129.14703369140625L124.608154296875,126.33758544921875L121.776611328125,126.33758544921875M115.87841796875,129.38107299804688L115.87841796875,131.9564208984375L121.540771484375,131.9564208984375L121.540771484375,129.38107299804688L115.87841796875,129.38107299804688M119.063232421875,6L138.646240234375,6L139,6.351165771484375L139,26.134307861328125L118.70947265625,26.134307861328125L118.70947265625,6.351165771484375L119.063232421875,6M121.540771484375,9.0435791015625L121.540771484375,23.090728759765625L122.0126953125,23.3248291015625L135.932861328125,23.3248291015625L135.932861328125,9.0435791015625L121.540771484375,9.0435791015625M14.898193359375,11.85296630859375L23.6279296875,11.85296630859375L23.6279296875,20.51544189453125L14.898193359375,20.51544189453125L14.898193359375,11.85296630859375M124.608154296875,11.85296630859375L133.101806640625,11.85296630859375L133.101806640625,20.51544189453125L124.608154296875,20.51544189453125L124.608154296875,11.85296630859375M72.466552734375,23.3248291015625L75.533447265625,23.3248291015625L75.533447265625,26.134307861328125L72.466552734375,26.134307861328125L72.466552734375,23.3248291015625M14.898193359375,28.943756103515625L23.6279296875,28.943756103515625L23.6279296875,31.987274169921875L20.796630859375,31.987274169921875L20.796630859375,34.796722412109375L17.965576171875,34.796722412109375L17.965576171875,37.606170654296875L14.898193359375,37.606170654296875L14.898193359375,28.943756103515625M26.459228515625,68.97824096679688L29.29052734375,68.97824096679688L29.29052734375,72.02175903320312L26.459228515625,72.02175903320312L26.459228515625,68.97824096679688M72.466552734375,68.97824096679688L75.533447265625,68.97824096679688L75.533447265625,72.02175903320312L72.466552734375,72.02175903320312L72.466552734375,68.97824096679688M118.70947265625,68.97824096679688L121.776611328125,68.97824096679688L121.776611328125,72.02175903320312L118.70947265625,72.02175903320312L118.70947265625,68.97824096679688M135.932861328125,77.64065551757812L139,77.64065551757812L139,80.68423461914062L136.1689453125,80.68423461914062L136.1689453125,83.49362182617188L133.101806640625,83.49362182617188L133.101806640625,80.4500732421875L135.932861328125,80.4500732421875L135.932861328125,77.64065551757812M72.466552734375,94.96551513671875L78.246826171875,94.96551513671875L78.36474609375,95.08258056640625L78.36474609375,97.77496337890625L81.43212890625,97.77496337890625L81.43212890625,106.4373779296875L78.36474609375,106.4373779296875L78.36474609375,97.77496337890625L72.466552734375,97.77496337890625L72.466552734375,94.96551513671875M58.074462890625,97.77496337890625L61.1416015625,97.77496337890625L61.1416015625,100.58444213867188L58.074462890625,100.58444213867188L58.074462890625,97.77496337890625M26.459228515625,109.24685668945312L29.29052734375,109.24685668945312L29.29052734375,112.05624389648438L26.459228515625,112.05624389648438L26.459228515625,109.24685668945312M58.074462890625,109.24685668945312L61.1416015625,109.24685668945312L61.1416015625,112.05624389648438L58.074462890625,112.05624389648438L58.074462890625,109.24685668945312M9,114.86569213867188L29.29052734375,114.86569213867188L29.29052734375,135L9.353759765625,135L9,134.64883422851562L9,114.86569213867188M12.067138671875,117.6751708984375L12.067138671875,131.9564208984375L26.459228515625,131.9564208984375L26.459228515625,117.6751708984375L12.067138671875,117.6751708984375M72.466552734375,114.86569213867188L75.533447265625,114.86569213867188L75.533447265625,117.90927124023438L72.466552734375,117.90927124023438L72.466552734375,114.86569213867188M118.70947265625,114.86569213867188L121.776611328125,114.86569213867188L121.776611328125,117.90927124023438L118.70947265625,117.90927124023438L118.70947265625,114.86569213867188M14.898193359375,120.71871948242188L23.6279296875,120.71871948242188L23.6279296875,129.14703369140625L14.898193359375,129.14703369140625L14.898193359375,120.71871948242188M135.932861328125,120.71871948242188L139,120.71871948242188L139,126.33758544921875L135.932861328125,126.33758544921875L135.932861328125,120.71871948242188M61.1416015625,131.9564208984375L63.97265625,131.9564208984375L63.97265625,135L61.1416015625,135L61.1416015625,131.9564208984375M81.196044921875,131.9564208984375L84.26318359375,131.9564208984375L84.26318359375,135L81.196044921875,135L81.196044921875,131.9564208984375" style="fill: rgb(0, 0, 0); fill-opacity: 1;"/></g></g></g></g></g></g></g></g></svg>